{"title":"Sinister 2012 R5 LiNE XviD-BiDA","uid":7833999,"size":735991732,"categoryP":"video","categoryS":"movies","magnet":"?xt=urn:btih:d53d8e7f5d5c09f92c7251cd74c9d1294efd0e01&amp;dn=Sinister+2012+R5+LiNE+XviD-BiDA&amp;tr=udp%3A%2F%2Ftracker.openbittorrent.com%3A80&amp;tr=udp%3A%2F%2Fopen.demonii.com%3A1337&amp;tr=udp%3A%2F%2Ftracker.coppersurfer.tk%3A6969&amp;tr=udp%3A%2F%2Fexodus.desync.com%3A6969","seeders":4,"leechers":1,"uploader":"xxxlavalxxx","files":1,"time":1353148441,"description":"[url]http://www.imdb.com/title/tt1922777/[/url]\n\n\n[b]Plot:A true-crime writer finds a cache of 8mm &quot;snuff&quot; films that suggest the murder he is currently researching is the work of a serial killer whose career dates back to the 1960s.\n \n\n\nDirector: \nScott Derrickson\n\n Writers: \nScott Derrickson (screenplay), C. Robert Cargill\n \nStars:\n Ethan Hawke, Juliet Rylance and James Ransone\n\nGenres:\n Horror | Mystery [/b]\n\n\n\n\nFormat                                   : AVI\nFormat/Info                              : Audio Video Interleave\nFile size                                : 702 MiB\nDuration                                 : 1h 45mn\nOverall bit rate                         : 934 Kbps\nWriting application                      : VirtualDubMod 1.5.10.2 (build 2542/release)\nWriting library                          : VirtualDub build 32817/release\n\nVideo\nID                                       : 0\nFormat                                   : MPEG-4 Visual\nFormat profile                           : Advanced Simple@L5\nFormat settings, BVOP                    : 2\nFormat settings, QPel                    : No\nFormat settings, GMC                     : No warppoints\nFormat settings, Matrix                  : Default (MPEG)\nCodec ID                                 : XVID\nCodec ID/Hint                            : XviD\nDuration                                 : 1h 45mn\nBit rate                                 : 797 Kbps\nWidth                                    : 640 pixels\nHeight                                   : 272 pixels\nDisplay aspect ratio                     : 2.35:1\nFrame rate                               : 25.000 fps\nColor space                              : YUV\nChroma subsampling                       : 4:2:0\nBit depth                                : 8 bits\nScan type                                : Progressive\nCompression mode                         : Lossy\nBits/(Pixel*Frame)                       : 0.183\nStream size                              : 598 MiB (85%)\nWriting library                          : XviD 1.2.1 (UTC 2008-12-04)\n\nAudio\nID                                       : 1\nFormat                                   : MPEG Audio\nFormat version                           : Version 1\nFormat profile                           : Layer 3\nCodec ID                                 : 55\nCodec ID/Hint                            : MP3\nDuration                                 : 1h 45mn\nBit rate mode                            : Constant\nBit rate                                 : 128 Kbps\nChannel(s)                               : 2 channels\nSampling rate                            : 48.0 KHz\nCompression mode                         : Lossy\nStream size                              : 96.2 MiB (14%)\nAlignment                                : Split accross interleaves\nInterleave, duration                     : 40 ms (1.00 video frame)\nInterleave, preload duration             : 500 ms\n\n &lt;a href=&quot;\nhttp://bayimg.com/oaGfdAAea&quot; rel=&quot;nofollow&quot; target=&quot;_NEW&quot;&gt;\nhttp://bayimg.com/oaGfdAAea&lt;/a&gt; &lt;a href=&quot;\nhttp://bayimg.com/oAgfFaAeA&quot; rel=&quot;nofollow&quot; target=&quot;_NEW&quot;&gt;\nhttp://bayimg.com/oAgfFaAeA&lt;/a&gt;","torrent":{"xt":"urn:btih:d53d8e7f5d5c09f92c7251cd74c9d1294efd0e01","amp;dn":"Sinister+2012+R5+LiNE+XviD-BiDA","amp;tr":["udp%3A%2F%2Ftracker.openbittorrent.com%3A80","udp%3A%2F%2Fopen.demonii.com%3A1337","udp%3A%2F%2Ftracker.coppersurfer.tk%3A6969","udp%3A%2F%2Fexodus.desync.com%3A6969"],"infoHash":"d53d8e7f5d5c09f92c7251cd74c9d1294efd0e01","infoHashBuffer":{"type":"Buffer","data":[213,61,142,127,93,92,9,249,44,114,81,205,116,201,209,41,78,253,14,1]},"announce":[],"urlList":[]}}